<svg height="512pt" viewBox="-65 0 512 512.0005" width="512pt" xmlns="http://www.w3.org/2000/svg"><path d="m206 15.023438v325.347656c0 8.292968-6.71875 15.023437-15 15.023437s-15-6.730469-15-15.023437v-325.347656c0-8.292969 6.71875-15.023438 15-15.023438s15 6.730469 15 15.023438zm0 0" fill="#60e15b"/><path d="m191 355.398438v-355.398438c8.28125 0 15 6.730469 15 15.023438v325.347656c0 8.292968-6.71875 15.027344-15 15.027344zm0 0" fill="#00c579"/><path d="m355.121094 392.632812v95.5c0 2.820313-1.28125 5.484376-3.460938 7.257813l-18.039062 14.542969c-3.410156 2.753906-8.300782 2.753906-11.710938 0l-21.488281-17.347656h-.191406l-21.5 17.347656c-3.421875 2.753906-8.300781 2.753906-11.71875 0l-21.492188-17.347656-21.5 17.347656c-3.429687 2.753906-8.300781 2.753906-11.710937 0l-21.308594-17.195313-.089844-.070312-21.410156 17.265625c-3.417969 2.753906-8.289062 2.753906-11.710938 0l-21.5-17.34375-21.488281 17.34375c-3.421875 2.753906-8.300781 2.753906-11.730469 0l-21.5-17.34375-21.488281 17.34375c-3.410156 2.753906-8.292969 2.753906-11.722656 0l-18.019531-14.539063c-2.191406-1.773437-3.460938-4.4375-3.460938-7.261719v-95.496093h328.242188zm0 0" fill="#ffef75"/><path d="m355.121094 392.632812v95.5c0 2.820313-1.28125 5.484376-3.460938 7.257813l-18.039062 14.542969c-3.410156 2.753906-8.300782 2.753906-11.710938 0l-21.488281-17.347656h-.191406l-21.5 17.347656c-3.421875 2.753906-8.300781 2.753906-11.71875 0l-21.492188-17.347656-21.5 17.347656c-3.429687 2.753906-8.300781 2.753906-11.710937 0l-21.308594-17.195313v-100.105469zm0 0" fill="#ffd92c"/><path d="m382 368.496094v18.429687c0 11.425781-9.289062 20.730469-20.699219 20.730469h-340.601562c-11.410157 0-20.699219-9.304688-20.699219-20.730469v-18.429687c0-23.246094 18.878906-42.152344 42.082031-42.152344h297.839844c23.199219 0 42.078125 18.90625 42.078125 42.152344zm0 0" fill="#1765af"/><path d="m382 368.496094v18.429687c0 11.425781-9.289062 20.730469-20.699219 20.730469h-170.300781v-81.3125h148.921875c23.199219 0 42.078125 18.90625 42.078125 42.152344zm0 0" fill="#113a59"/></svg>