<svg height="480pt" viewBox="0 0 480 480" width="480pt" xmlns="http://www.w3.org/2000/svg"><path d="m412.398438 468.398438-124.398438-124.398438 56-56 124.398438 124.398438c7.425781 7.425781 11.601562 17.496093 11.601562 28 0 21.875-17.726562 39.601562-39.601562 39.601562-10.503907 0-20.566407-4.167969-28-11.601562zm0 0" fill="#5789d6"/><path d="m440.398438 480c6.800781 0 13.113281-1.871094 18.707031-4.894531 3.023437-5.59375 4.894531-11.898438 4.894531-18.707031 0-10.503907-4.167969-20.574219-11.601562-28l-124.398438-124.398438-40 40 124.398438 124.398438c7.433593 7.433593 17.496093 11.601562 28 11.601562zm0 0" fill="#699ce6"/><path d="m280 304 24 24 24-24-24-24" fill="#bc8f6f"/><path d="m472 32c0 13.253906-10.746094 24-24 24s-24-10.746094-24-24 10.746094-24 24-24 24 10.746094 24 24zm0 0" fill="#8d5655"/><path d="m344 64c0 13.253906-10.746094 24-24 24s-24-10.746094-24-24 10.746094-24 24-24 24 10.746094 24 24zm0 0" fill="#df9363"/><path d="m160 32c0 13.253906-10.746094 24-24 24s-24-10.746094-24-24 10.746094-24 24-24 24 10.746094 24 24zm0 0" fill="#70b48f"/><path d="m56 176c0 13.253906-10.746094 24-24 24s-24-10.746094-24-24 10.746094-24 24-24 24 10.746094 24 24zm0 0" fill="#f8cf6a"/><path d="m56 32c0 13.253906-10.746094 24-24 24s-24-10.746094-24-24 10.746094-24 24-24 24 10.746094 24 24zm0 0" fill="#dc6068"/><path d="m432 432h16v16h-16zm0 0" fill="#5789d6"/><g fill="#bab8b9"><path d="m448 64c-17.648438 0-32-14.351562-32-32s14.351562-32 32-32 32 14.351562 32 32-14.351562 32-32 32zm0-48c-8.824219 0-16 7.175781-16 16s7.175781 16 16 16 16-7.175781 16-16-7.175781-16-16-16zm0 0"/><path d="m320 96c-17.648438 0-32-14.351562-32-32s14.351562-32 32-32 32 14.351562 32 32-14.351562 32-32 32zm0-48c-8.824219 0-16 7.175781-16 16s7.175781 16 16 16 16-7.175781 16-16-7.175781-16-16-16zm0 0"/><path d="m32 208c-17.648438 0-32-14.351562-32-32s14.351562-32 32-32 32 14.351562 32 32-14.351562 32-32 32zm0-48c-8.824219 0-16 7.175781-16 16s7.175781 16 16 16 16-7.175781 16-16-7.175781-16-16-16zm0 0"/><path d="m32 64c-17.648438 0-32-14.351562-32-32s14.351562-32 32-32 32 14.351562 32 32-14.351562 32-32 32zm0-48c-8.824219 0-16 7.175781-16 16s7.175781 16 16 16 16-7.175781 16-16-7.175781-16-16-16zm0 0"/><path d="m136 64c-17.648438 0-32-14.351562-32-32s14.351562-32 32-32 32 14.351562 32 32-14.351562 32-32 32zm0-48c-8.824219 0-16 7.175781-16 16s7.175781 16 16 16 16-7.175781 16-16-7.175781-16-16-16zm0 0"/><path d="m24 56h16v96h-16zm0 0"/><path d="m33.664062 155.136719 79.984376-104.007813 12.675781 9.75-79.984375 104.007813zm0 0"/><path d="m400.601562 133.046875 31.976563-80.007813 14.855469 5.9375-31.972656 80.007813zm0 0"/><path d="m329.988281 85.273438 12.035157-10.53125 56 64-12.035157 10.53125zm0 0"/><path d="m159.050781 47.933594 1.871094-15.890625 136.003906 15.992187-1.867187 15.894532zm0 0"/></g><path d="m328 208c0 66.273438-53.726562 120-120 120s-120-53.726562-120-120 53.726562-120 120-120 120 53.726562 120 120zm0 0" fill="#5b6673"/><path d="m296 208c0 48.601562-39.398438 88-88 88s-88-39.398438-88-88 39.398438-88 88-88 88 39.398438 88 88zm0 0" fill="#94cce7"/><path d="m296 208c0 48.601562-39.398438 88-88 88s-88-39.398438-88-88 39.398438-88 88-88 88 39.398438 88 88zm0 0" fill="#94cce7"/><path d="m232 240c0 13.253906-10.746094 24-24 24s-24-10.746094-24-24 10.746094-24 24-24 24 10.746094 24 24zm0 0" fill="#699ce6"/><path d="m208 272c-17.648438 0-32-14.351562-32-32s14.351562-32 32-32 32 14.351562 32 32-14.351562 32-32 32zm0-48c-8.824219 0-16 7.175781-16 16s7.175781 16 16 16 16-7.175781 16-16-7.175781-16-16-16zm0 0" fill="#bab8b9"/><path d="m228.695312 232.679688 160.015626-71.953126 6.5625 14.59375-160.015626 71.953126zm0 0" fill="#bab8b9"/><path d="m52.796875 191.320312 6.414063-14.660156 128.003906 56-6.410156 14.65625zm0 0" fill="#bab8b9"/><path d="m424 160c0 13.253906-10.746094 24-24 24s-24-10.746094-24-24 10.746094-24 24-24 24 10.746094 24 24zm0 0" fill="#dcb29c"/><path d="m400 192c-17.648438 0-32-14.351562-32-32s14.351562-32 32-32 32 14.351562 32 32-14.351562 32-32 32zm0-48c-8.824219 0-16 7.175781-16 16s7.175781 16 16 16 16-7.175781 16-16-7.175781-16-16-16zm0 0" fill="#bab8b9"/></svg>