<svg height="480pt" viewBox="0 0 480 480" width="480pt" xmlns="http://www.w3.org/2000/svg"><path d="m168 288v-169.609375c0-29.703125 11.800781-58.191406 32.808594-79.191406l39.191406-39.199219 39.191406 39.191406c21.007813 21.007813 32.808594 49.496094 32.808594 79.199219v169.609375" fill="#bab8b9"/><path d="m236 4-35.191406 35.191406c-21.007813 21.007813-32.808594 49.496094-32.808594 79.199219v153.609375h120v-169.609375c0-29.703125-11.800781-58.191406-32.808594-79.191406zm0 0" fill="#d9d7d8"/><path d="m279.191406 39.191406-39.191406-39.191406-39.191406 39.191406c-7.097656 7.097656-13.046875 15.105469-17.945313 23.664063l1.136719 1.144531 15.601562 15.601562c10.503907 10.503907 24.742188 16.398438 39.597657 16.398438h1.609375c14.855468 0 29.09375-5.894531 39.597656-16.398438l15.59375-15.601562 1.136719-1.136719c-4.898438-8.566406-10.839844-16.566406-17.945313-23.671875zm0 0" fill="#ca5057"/><path d="m257.535156 79.601562 16.738282-16.738281c-4.898438-8.566406-10.839844-16.566406-17.945313-23.664062l-27.769531-27.765625-27.765625 27.765625c-7.097657 7.097656-13.050781 15.105469-17.945313 23.664062l1.152344 1.136719 15.601562 15.601562c7.957032 7.957032 18.070313 13.261719 28.964844 15.367188 10.898438-2.113281 21.007813-7.410156 28.96875-15.367188zm0 0" fill="#dc6068"/><path d="m168 208-64 80h64" fill="#575c61"/><path d="m168 288v-48l-38.398438 48zm0 0" fill="#5b6673"/><path d="m312 208 64 80h-64" fill="#575c61"/><path d="m312 240v48h38.398438zm0 0" fill="#5b6673"/><path d="m152 288h176v32h-176zm0 0" fill="#575c61"/><path d="m152 304h136v16h-136zm0 0" fill="#5b6673"/><path d="m216 320h48v80h-48zm0 0" fill="#df9363"/><path d="m216 320h48v72h-48zm0 0" fill="#5789d6"/><path d="m216 320h48v40h-48zm0 0" fill="#699ce6"/><path d="m184 336h32v24h-32zm0 0" fill="#df9363"/><path d="m184 320h32v32h-32zm0 0" fill="#ca5057"/><path d="m264 336h32v24h-32zm0 0" fill="#df9363"/><path d="m264 320h32v32h-32zm0 0" fill="#ca5057"/><path d="m168 256h32v-48h-32" fill="#eebc5a"/><path d="m168 256h16v-48h-16" fill="#f8cf6a"/><path d="m312 208h-32v-48h32" fill="#eebc5a"/><path d="m296 208h-16v-48h16" fill="#f8cf6a"/><path d="m160 480c10.488281 0 19.3125-6.769531 22.574219-16.144531.480469.03125.9375.144531 1.425781.144531 13.257812 0 24-10.742188 24-24 0-11.328125-7.871094-20.761719-18.425781-23.28125 1.503906-3.964844 2.425781-8.222656 2.425781-12.71875 0-19.878906-16.121094-36-36-36-4.367188 0-8.496094.894531-12.367188 2.320312-2.816406-23.832031-23.046874-42.320312-47.632812-42.320312-15 0-28.382812 6.886719-37.183594 17.664062-3.464844-.976562-7.039062-1.664062-10.816406-1.664062-22.089844 0-40 17.910156-40 40 0 9.054688 3.121094 17.3125 8.199219 24.015625-9.785157 7.296875-16.199219 18.847656-16.199219 31.984375 0 22.089844 17.910156 40 40 40" fill="#bab8b9"/><path d="m160 480c10.488281 0 19.3125-6.769531 22.574219-16.144531.480469.03125.9375.144531 1.425781.144531 13.257812 0 24-10.742188 24-24 0-11.328125-7.871094-20.761719-18.425781-23.28125 1.503906-3.964844 2.425781-8.222656 2.425781-12.71875 0-19.878906-16.121094-36-36-36-4.367188 0-8.496094.894531-12.367188 2.320312-2.816406-23.832031-23.046874-42.320312-47.632812-42.320312-15 0-28.382812 6.886719-37.183594 17.664062-3.464844-.976562-7.039062-1.664062-10.816406-1.664062-22.089844 0-40 17.910156-40 40 0 9.054688 3.121094 17.3125 8.199219 24.015625-9.785157 7.296875-16.199219 18.847656-16.199219 31.984375 0 22.089844 17.910156 40 40 40" fill="#bab8b9"/><path d="m320 480c-10.488281 0-19.3125-6.769531-22.574219-16.144531-.480469.03125-.9375.144531-1.425781.144531-13.257812 0-24-10.742188-24-24 0-11.328125 7.871094-20.761719 18.425781-23.28125-1.503906-3.964844-2.425781-8.222656-2.425781-12.71875 0-19.878906 16.121094-36 36-36 4.367188 0 8.496094.894531 12.367188 2.320312 2.816406-23.832031 23.046874-42.320312 47.632812-42.320312 15 0 28.382812 6.886719 37.183594 17.664062 3.464844-.976562 7.039062-1.664062 10.816406-1.664062 22.089844 0 40 17.910156 40 40 0 9.054688-3.121094 17.3125-8.199219 24.015625 9.785157 7.296875 16.199219 18.847656 16.199219 31.984375 0 22.089844-17.910156 40-40 40" fill="#bab8b9"/><path d="m232 120h16v16h-16zm0 0" fill="#ca5057"/><path d="m232 120h8v16h-8zm0 0" fill="#dc6068"/><path d="m232 152h16v16h-16zm0 0" fill="#ca5057"/><path d="m232 184h16v16h-16zm0 0" fill="#ca5057"/><g fill="#d9d7d8"><path d="m168 424h-16c0-8.824219-7.175781-16-16-16v-16c17.648438 0 32 14.351562 32 32zm0 0"/><path d="m96 400h-16c0-8.824219-7.175781-16-16-16s-16 7.175781-16 16h-16c0-17.648438 14.351562-32 32-32s32 14.351562 32 32zm0 0"/><path d="m64 456c-17.648438 0-32-14.351562-32-32h16c0 8.824219 7.175781 16 16 16zm0 0"/><path d="m328 424h-16c0-17.648438 14.351562-32 32-32v16c-8.824219 0-16 7.175781-16 16zm0 0"/><path d="m448 400h-16c0-8.824219-7.175781-16-16-16s-16 7.175781-16 16h-16c0-17.648438 14.351562-32 32-32s32 14.351562 32 32zm0 0"/><path d="m416 456v-16c8.824219 0 16-7.175781 16-16h16c0 17.648438-14.351562 32-32 32zm0 0"/><path d="m112 0h16v96h-16zm0 0"/><path d="m80 64h16v80h-16zm0 0"/><path d="m352 80h16v96h-16zm0 0"/><path d="m384 144h16v80h-16zm0 0"/></g><path d="m232 152h8v16h-8zm0 0" fill="#dc6068"/><path d="m232 184h8v16h-8zm0 0" fill="#dc6068"/></svg>